P3
5 4
255
0 0 30    0 0 30    0 0 0    0 0 30    
0 0 0    0 0 30    0 0 0    0 0 0    
0 0 0    0 0 0    0 0 30    0 0 0    
0 0 30    0 0 0    0 0 0    0 0 30    
0 0 30    0 0 30    0 0 30    0 0 30    
