P3
5 4
255
10 20 60    10 20 60    0 0 0    10 20 60    
0 0 0    10 20 60    0 0 0    0 0 0    
0 0 0    0 0 0    10 20 60    0 0 0    
10 20 60    0 0 0    0 0 0    10 20 60    
10 20 60    10 20 60    10 20 60    10 20 60    
