P3
5 4
255
0 20 0    0 20 0    0 0 0    0 20 0    
0 0 0    0 20 0    0 0 0    0 0 0    
0 0 0    0 0 0    0 20 0    0 0 0    
0 20 0    0 0 0    0 0 0    0 20 0    
0 20 0    0 0 0    0 0 0    0 20 0    
